HIERARCHY
ROOT Hips
{
	OFFSET -3.958830 18.904000 13.208200
	CHANNELS 6 Xposition Yposition Zposition Zrotation Yrotation Xrotation 
	JOINT LHipJoint
	{
		OFFSET 0.000000 0.000000 0.000000
		CHANNELS 3 Zrotation Yrotation Xrotation
		JOINT LeftUpLeg
		{
			OFFSET 1.800000 -1.400000 0.085000
			CHANNELS 3 Zrotation Yrotation Xrotation
			JOINT LeftLeg
			{
				OFFSET 2.215000 -6.000000 0.000000
				CHANNELS 3 Zrotation Yrotation Xrotation
				JOINT LeftFoot
				{
					OFFSET 2.500000 -6.900000 0.000000
					CHANNELS 3 Zrotation Yrotation Xrotation
					JOINT LeftToeBase
					{
						OFFSET 0.200000 -0.500000 1.950000
						CHANNELS 3 Zrotation Yrotation Xrotation
						End Site
						{
							OFFSET 0.000000 0.000000 0.000000
						}
					}
				}
			}
		}
	}
	JOINT RHipJoint
	{
		OFFSET 0.000000 0.000000 0.000000
		CHANNELS 3 Zrotation Yrotation Xrotation
		JOINT RightUpLeg
		{
			OFFSET -1.800000 -1.400000 0.085000
			CHANNELS 3 Zrotation Yrotation Xrotation
			JOINT RightLeg
			{
				OFFSET -2.215000 -6.000000 0.000000
				CHANNELS 3 Zrotation Yrotation Xrotation
				JOINT RightFoot
				{
					OFFSET -2.500000 -6.900000 0.000000
					CHANNELS 3 Zrotation Yrotation Xrotation
					JOINT RightToeBase
					{
						OFFSET -0.200000 -0.500000 1.950000
						CHANNELS 3 Zrotation Yrotation Xrotation
						End Site
						{
							OFFSET 0.000000 0.000000 0.000000
						}
					}
				}
			}
		}
	}
	JOINT LowerBack
	{
		OFFSET 0.000000 0.000000 0.000000
		CHANNELS 3 Zrotation Yrotation Xrotation
		JOINT Spine
		{
			OFFSET -0.087000 1.940000 -0.288900
			CHANNELS 3 Zrotation Yrotation Xrotation
			JOINT Spine1
			{
				OFFSET 0.000000 1.950000 0.060000
				CHANNELS 3 Zrotation Yrotation Xrotation
				JOINT Neck
				{
					OFFSET 0.000000 0.000000 0.000000
					CHANNELS 3 Zrotation Yrotation Xrotation
					JOINT Neck1
					{
						OFFSET 0.000000 1.600000 0.340000
						CHANNELS 3 Zrotation Yrotation Xrotation
						JOINT Head
						{
							OFFSET 0.000000 1.667000 -0.240000
							CHANNELS 3 Zrotation Yrotation Xrotation
							End Site
							{
								OFFSET 0.000000 0.000000 0.000000
							}
						}
					}
				}
				JOINT LeftShoulder
				{
					OFFSET 0.000000 0.000000 0.000000
					CHANNELS 3 Zrotation Yrotation Xrotation
					JOINT LeftArm
					{
						OFFSET 2.700000 1.550000 -0.730000
						CHANNELS 3 Zrotation Yrotation Xrotation
						JOINT LeftForeArm
						{
							OFFSET 5.450000 0.000000 0.000000
							CHANNELS 3 Zrotation Yrotation Xrotation
							JOINT LeftHand
							{
								OFFSET 3.450000 0.000000 0.000000
								CHANNELS 3 Zrotation Yrotation Xrotation
								JOINT LeftHandIndex1
								{
									OFFSET 0.750000 0.000000 0.000000
									CHANNELS 3 Zrotation Yrotation Xrotation
									End Site
									{
										OFFSET 0.000000 0.000000 0.000000
									}
								}
							}
						}
					}
				}
				JOINT RightShoulder
				{
					OFFSET 0.000000 0.000000 0.000000
					CHANNELS 3 Zrotation Yrotation Xrotation
					JOINT RightArm
					{
						OFFSET -2.700000 1.550000 -0.730000
						CHANNELS 3 Zrotation Yrotation Xrotation
						JOINT RightForeArm
						{
							OFFSET -5.450000 0.000000 0.000000
							CHANNELS 3 Zrotation Yrotation Xrotation
							JOINT RightHand
							{
								OFFSET -3.450000 0.000000 0.000000
								CHANNELS 3 Zrotation Yrotation Xrotation
								JOINT RightHandIndex1
								{
									OFFSET -0.750000 0.000000 0.000000
									CHANNELS 3 Zrotation Yrotation Xrotation
									End Site
									{
										OFFSET 0.000000 0.000000 0.000000
									}
								}
							}
						}
					}
				}
			}
		}
	}
}
MOTION
Frames: 4
Frame Time: 0.016667
-0.472730 16.471370 0.555000 -2.446394 -7.367085 -3.790338 -15.832017 13.416287 4.032456 -8.270386 -7.323523 2.138643 -18.275597 14.373741 38.218262 0.987193 9.983153 1.514586 -0.069430 -0.169860 -0.289880 17.960536 -8.418881 3.045877 7.932081 2.742817 -30.421776 18.569138 -13.496870 32.174705 -0.674758 -5.838683 2.332403 -0.033610 0.919640 0.376700 -2.184785 -6.398673 -8.270175 -0.043266 -9.356354 14.856851 5.725328 -10.499246 10.824901 -3.783907 -2.953560 -12.236799 -10.201916 7.317282 30.775901 -1.473980 4.027580 -4.713430 16.348800 -3.867324 1.525675 25.885261 -10.963993 0.737140 7.998389 -9.344800 -0.215011 -3.854720 3.258562 0.381650 0.455750 -0.099360 0.388990 -8.454416 0.929031 7.872281 5.828410 -15.214262 -4.490462 -14.911215 19.456540 -1.199258 2.173960 -1.537238 -0.388030 0.466690 0.233300 0.186260 
-0.410280 16.452810 0.642840 -2.820501 -8.386735 -4.677259 -15.705113 13.272800 4.068636 -8.060168 -8.377430 2.478020 -17.435689 15.085763 42.388828 1.130126 10.712732 1.332122 -0.162850 -0.260870 -0.372310 18.073876 -8.553213 3.057597 7.727538 2.804086 -30.855650 16.788166 -14.408976 36.500039 -0.774039 -6.545322 2.092090 -0.058930 1.054960 0.426030 -2.538093 -6.017252 -8.360299 2.190856 -9.720907 18.594405 6.340264 -10.856299 8.245851 -4.601239 -2.264655 -10.852896 -8.378800 7.736835 29.900537 -1.882260 5.002560 -3.285840 17.540023 -1.152654 2.079640 20.495888 -9.385416 1.697646 9.230658 -13.621446 -0.434350 -4.009971 3.421403 0.318310 0.563210 -0.158390 0.387580 -7.832847 -3.760094 4.467878 10.040355 -14.527688 -7.374273 -16.799887 32.234790 -2.377092 1.970762 -1.820512 -0.416620 0.504150 0.312890 0.214280 
-0.318850 16.477030 0.745570 -3.416149 -9.805597 -6.714416 -15.588354 13.269568 4.036426 -7.081633 -9.119153 3.995799 -14.994164 15.529697 47.542687 1.192921 11.413555 1.047578 -0.243330 -0.423050 -0.340840 18.155975 -8.698882 3.092388 6.735277 2.865896 -31.322764 14.282454 -15.818290 43.275029 -0.964210 -7.622325 1.678117 -0.143830 0.968940 0.427080 -2.814744 -5.803156 -8.416500 5.962507 -9.879681 25.228735 5.978420 -10.314111 4.917089 -4.347255 -2.339159 -9.401340 -8.442692 6.863769 29.934088 -3.114400 5.095430 -3.851050 15.362938 0.949670 1.441672 18.691096 -8.549626 2.178455 5.393794 -18.025218 -0.056314 -3.914154 3.616302 0.380920 0.522350 -0.185360 0.242370 -6.084507 -6.000673 3.364060 15.913002 -20.072800 -11.019983 -17.478640 44.901744 -3.813450 1.858058 -1.920373 -0.437920 0.426290 0.420450 0.116750 
-0.220330 16.477710 0.861460 -3.543015 -11.176688 -6.922029 -15.456527 13.075362 3.910691 -5.980330 -9.931754 3.453005 -12.585410 15.669449 52.379304 1.223596 12.017002 0.878093 -0.308680 -0.581450 -0.289600 18.283215 -8.788773 3.261049 5.579842 3.571180 -34.716312 10.857679 -17.255257 52.256402 -1.239522 -9.119980 1.194366 -0.202650 0.976860 0.413190 -3.196576 -5.282923 -8.425618 10.351300 -11.468051 29.813116 4.619161 -10.556756 0.561708 -3.809713 -1.984495 -8.166874 -7.210683 7.036006 29.201467 -5.247190 7.007540 -2.797840 14.828433 4.210791 1.517527 12.540672 -6.818522 3.073268 0.504919 -24.435218 0.661454 -3.914374 3.734401 0.441140 0.542860 -0.232380 0.191840 -6.404012 -10.728505 2.025512 24.223812 -16.334766 -12.644080 -12.136485 46.973116 -2.355860 1.796136 -1.907340 -0.528150 0.417660 0.455820 0.033130 
